<svg id="Layer_1" data-name="Layer 1" xmlns="http://www.w3.org/2000/svg" xmlns:xlink="http://www.w3.org/1999/xlink" viewBox="0 0 400 300"><defs><linearGradient id="linear-gradient" x1="247.23" y1="119.33" x2="218.59" y2="119.88" gradientUnits="userSpaceOnUse"><stop offset="0" stop-color="#fff"/><stop offset="0.03" stop-color="#f7931e"/><stop offset="1" stop-color="#1b1464"/></linearGradient></defs><title>1</title><path d="M48.78,203.85V106.11a9.78,9.78,0,0,1,5.08-8.58L210.72,11.61a9.78,9.78,0,0,1,9.53.07L364.11,93.3a9.77,9.77,0,0,1,5,8.77c-.52,19-2.12,77.8-2.12,81.24" fill="#68e1fd"/><path d="M48.78,203.85V106.11a9.78,9.78,0,0,1,5.08-8.58L210.72,11.61a9.78,9.78,0,0,1,9.53.07L364.11,93.3a9.77,9.77,0,0,1,5,8.77c-.52,19-2.12,77.8-2.12,81.24" opacity="0.61"/><path d="M53.45,195.47l157.3-89.84a24.51,24.51,0,0,1,24.47.09l127.12,73.85a9.27,9.27,0,0,1,0,16L208,286.28a24,24,0,0,1-24.11.13L53.43,211.56A9.27,9.27,0,0,1,53.45,195.47Z" fill="#e59950"/><path d="M221.27,107.3c-1.33-.14-13.43-5.5-23.58-3.57-2.46.47-20.53,21.89-20,25.37s10.11,15.7,10.11,15.7l25.2-24" fill="#68e1fd"/><path d="M210.49,122.58l1.79-1.7,8.3-13.53c-1.31-.14-12.95-5.28-23-3.67C197.65,111.47,203.77,118.56,210.49,122.58Z" opacity="0.61"/><path d="M247.66,161.21c-1.66-6.78-4.24-18.7-6.28-21.28-3.1-3.92-11.46-12.83-11.46-12.83l-6.12,12.59,8.92,9.16,5.42,14.55C241.57,162.67,244.64,163,247.66,161.21Z" fill="#fff"/><path d="M238.72,159.73s-4.09,11.06-2.55,11.95c2.61,1.5,3.15-6.38,4.57-4.73s2.61,9.92,5.12,8.93,4.1-13.19-.55-20.73S238.72,159.73,238.72,159.73Z" fill="#fff"/><path d="M166.71,172.69s-5.76-.15-6.75,3-2.31,20,3.49,20.84,6.87-15.45,6.87-15.45" fill="#fff"/><path d="M153.11,149.29c-.78-.16-3.34,4.15-3.73,4.8a22.77,22.77,0,0,0-2.57,6.2c-.76,3.1-1.4,7.4-.16,10.45,2.07,5.12,8.26.48,10-2.64a22.89,22.89,0,0,0,1.74-4.4,55,55,0,0,0,.48-6.59V151A39.81,39.81,0,0,0,153.11,149.29Z" fill="#fff"/><path d="M199.34,124.54S187.87,144,186.81,151.19s-5.8,31.43-.42,32.74,10.84-.17,14-12.42c2.1-8,1.85-20.57,1.85-20.57Z" fill="#fff"/><path d="M228.2,134.45c.73-2.41,1.24-4.87,1.73-7.34l-.24-.35-14.29-9.33s-8.78,3.57-10.33,8.92,4.75,26.94,4.75,26.94l16.52-14A44.78,44.78,0,0,0,228.2,134.45Z" fill="#fff"/><path d="M188.06,170.47l-21.34,2.22s-4.51,6.84,1.51,12.1c0,0,20.44,2.25,26.38-2.23S188.06,170.47,188.06,170.47Z" fill="#fff"/><path d="M173.54,167.21c6.14-2.62,25.63-12.82,25.63-12.82" fill="#fff"/><path d="M173.54,167.21c-4.88.79-17.23-2.89-17.23-2.89-10-4.08,2.09-13.58,2.09-13.58s9.91,2.14,14.65.63,20.55-17.21,20.55-17.21,1.65,22-.52,25.5S173.54,167.21,173.54,167.21Z" fill="#fff"/><path d="M216.8,157.09s9.15-.22,9.15,1.77-3.83,2.6-3.83,2.6,5.28,8.12,2.87,11-8.54,1.84-9.61.61-4.32-9.24-4.32-9.24" fill="#fff"/><path d="M184.33,170.47s6.39,5.74,8.48,6.35,6.24-.65,6.24-.65-3,3.23-6.24,3.38S184.33,170.47,184.33,170.47Z" fill="#57464e"/><path d="M171.15,168.2a31.9,31.9,0,0,1-2.64-8.61c-.11-2.47,1.34-7.74,1.34-7.74l1.36-.12s-1.62,7.17-1,8.4,3.3,7.08,3.3,7.08S173.65,169.88,171.15,168.2Z" fill="#57464e"/><path d="M226.41,139.36,209.16,138s-.1,8.89,1.67,11.49,1.68,1.37,1.68,1.37Z" fill="#a8a8a8"/><path d="M215.39,117.43s-13.39,3.87-16.05,8-2.84,21.75,0,26.4,11.72,12.93,11.72,12.93,5.29-4.57,5.74-6.78c0,0-5.93-9.79-6.64-12.3S215.39,117.43,215.39,117.43Z" fill="#fff"/><path d="M199.34,151.78s6.54-3.61,11.54-4.41C210.88,147.37,204.5,145.3,199.34,151.78Z" fill="#57464e"/><path d="M222.14,127.11s9.74.42,13.6-6.59-1.4-16.34-9.88-17.1-13.28,7-13.28,10.24S215,125.28,222.14,127.11Z" fill="#fff"/><path d="M216,118.71s.32,9.64,10.86,9,11.68-9.83,9.92-12.34S222.34,107,216,118.71Z" fill="url(#linear-gradient)"/><path d="M235.48,117.78a.77.77,0,0,0-1.48.41,4.12,4.12,0,0,1-.9,4c-.67.73.42,1.82,1.09,1.09A5.71,5.71,0,0,0,235.48,117.78Z" fill="#fff" opacity="0.54"/><path d="M231.49,123.69a.77.77,0,0,0,0,1.54A.77.77,0,0,0,231.49,123.69Z" fill="#fff" opacity="0.54"/><path d="M215.48,111.68l14.05-17.15s.39-.17.25.26L216,112Z" fill="#a8a8a8"/><path d="M217.79,111.68s-1.56-1.9-2.3-1.83-2.56,2.33-2.23,2.92,1.36,1.68,1.88,1.55S217.79,111.68,217.79,111.68Z" fill="#a8a8a8"/><path d="M217,110.75c-1,1-2,1.9-3,2.83.42.44.92.81,1.24.74.52-.13,2.66-2.64,2.66-2.64S217.51,111.21,217,110.75Z" fill="#898989"/><polygon points="211.58 151.78 209.1 153.55 210.34 155.07 212.75 153.43 211.58 151.78" fill="#57464e"/><path d="M213.34,155.46a.5.5,0,0,0,0,1A.5.5,0,0,0,213.34,155.46Z" fill="#777"/><path d="M214.86,157.14a.5.5,0,0,0,0,1A.5.5,0,0,0,214.86,157.14Z" fill="#777"/><path d="M162,152.64s-5.66,4.63-5.62,7.36,1.78,8.33,1.78,8.33.55-6.19,1.33-8.09a66.73,66.73,0,0,1,4.19-6.91Z" fill="#57464e"/><path d="M166.71,172.69s-1.41,4.35-.74,6,3.85,6.7,3.85,6.7l2.35-.24s-4.31-5.93-4.58-7.2S166.71,172.69,166.71,172.69Z" fill="#57464e"/><path d="M153.93,148.37c.11-.18-2.16,4-1.77,4.28a45.26,45.26,0,0,0,4.7,1.3l2.45-4.12Z" fill="#2d1e45"/><path d="M199.34,125.38s-2.73,16.46-2.06,19.23,4.83,10.85,4.83,10.85l-.17,6s-6.67-9.31-7.1-14.37S199.34,125.38,199.34,125.38Z" fill="#a8a8a8"/><path d="M185.18,161.58s.37-9.31.71-11.86,2.48-10.54,2.48-10.54l-7.72,6.91-1.75,18.61Z" fill="#a8a8a8"/><circle cx="287.74" cy="110.79" r="1.55" fill="#fff"/><path d="M216.34,84.36a.5.5,0,0,0,0,1A.5.5,0,0,0,216.34,84.36Z" fill="#fff"/><path d="M149,102.13a.5.5,0,0,0,0,1A.5.5,0,0,0,149,102.13Z" fill="#fff"/><path d="M120,149.66a.5.5,0,0,0,0,1A.5.5,0,0,0,120,149.66Z" fill="#fff"/><path d="M165.51,143.46a.5.5,0,0,0,0,1A.5.5,0,0,0,165.51,143.46Z" fill="#fff"/><path d="M154.76,114.11a.5.5,0,0,0,0,1A.5.5,0,0,0,154.76,114.11Z" fill="#fff"/><path d="M273.71,116.68v.41a.5.5,0,0,0,1,0v-.41A.5.5,0,0,0,273.71,116.68Z" fill="#fff"/><path d="M314.71,156.68a.5.5,0,0,0,0,1A.5.5,0,0,0,314.71,156.68Z" fill="#fff"/><path d="M258.09,95.52a.5.5,0,0,0,0,1A.5.5,0,0,0,258.09,95.52Z" fill="#fff"/><path d="M274.21,176.11a.5.5,0,0,0,0,1A.5.5,0,0,0,274.21,176.11Z" fill="#fff"/><path d="M120.46,201.32a.5.5,0,0,0,0,1A.5.5,0,0,0,120.46,201.32Z" fill="#fff"/><path d="M106.76,146.09l-.41-.41a.5.5,0,0,0-.71.71l.41.41A.5.5,0,0,0,106.76,146.09Z" fill="#fff"/><path d="M87,182.31a.5.5,0,0,0,0,1A.5.5,0,0,0,87,182.31Z" fill="#fff"/><path d="M182.87,239.34a.5.5,0,0,0,0,1A.5.5,0,0,0,182.87,239.34Z" fill="#fff"/><path d="M211.38,234.8a.5.5,0,0,0,0,1A.5.5,0,0,0,211.38,234.8Z" fill="#fff"/><path d="M282.06,216.2a.5.5,0,0,0,0,1A.5.5,0,0,0,282.06,216.2Z" fill="#fff"/><path d="M316.78,190.58a.5.5,0,0,0,0,1A.5.5,0,0,0,316.78,190.58Z" fill="#fff"/><path d="M267.18,152.55a.5.5,0,0,0,0,1A.5.5,0,0,0,267.18,152.55Z" fill="#fff"/><path d="M92.77,208.35a.5.5,0,0,0,0,1A.5.5,0,0,0,92.77,208.35Z" fill="#fff"/><path d="M176.67,81.53c-3.22,0-3.22,5,0,5S179.89,81.53,176.67,81.53Z" fill="#fff"/><ellipse cx="287.74" cy="205.87" rx="8.72" ry="3.29" fill="#cc7a36"/><path d="M291.47,206.57V158h-2.18V206.3A6.49,6.49,0,0,0,291.47,206.57Z" fill="#68e1fd"/><path d="M289.29,158s4.17-4.46,12.46-2.19a37.22,37.22,0,0,0,15.51.82v12.66s-12.8.64-16.59-1.5-11.38,3.53-11.38,3.53" fill="#68e1fd"/><ellipse cx="123.63" cy="211.64" rx="8.72" ry="3.29" fill="#cc7a36"/><ellipse cx="200.99" cy="211.64" rx="27.21" ry="4.53" fill="#cc7a36"/></svg>